<svg width="466" height="631" viewBox="0 0 466 631" fill="none" xmlns="http://www.w3.org/2000/svg">
<g opacity="0.7">
<mask id="path-1-inside-1" fill="white">
<path d="M403.325 329.099C403.325 431.88 320.004 515.201 217.223 515.201C114.441 515.201 31.1205 431.88 31.1205 329.099C31.1205 226.318 114.441 142.997 217.223 142.997C320.004 142.997 403.325 226.318 403.325 329.099ZM42.8896 329.099C42.8896 425.38 120.941 503.432 217.223 503.432C313.504 503.432 391.555 425.38 391.555 329.099C391.555 232.817 313.504 154.766 217.223 154.766C120.941 154.766 42.8896 232.817 42.8896 329.099Z"/>
</mask>
<path d="M403.325 329.099C403.325 431.88 320.004 515.201 217.223 515.201C114.441 515.201 31.1205 431.88 31.1205 329.099C31.1205 226.318 114.441 142.997 217.223 142.997C320.004 142.997 403.325 226.318 403.325 329.099ZM42.8896 329.099C42.8896 425.38 120.941 503.432 217.223 503.432C313.504 503.432 391.555 425.38 391.555 329.099C391.555 232.817 313.504 154.766 217.223 154.766C120.941 154.766 42.8896 232.817 42.8896 329.099Z" fill="#CBB700" stroke="#CBB700" stroke-width="2" mask="url(#path-1-inside-1)"/>
<circle cx="217.223" cy="329.099" r="162.197" stroke="#F60303" stroke-width="2" stroke-dasharray="125 125"/>
<path d="M465 1L118.115 279.965H207.346L70.1538 427.258H151.577L1 629.229L354.577 344.685H266.462L399.192 201.855H311.077L465 1Z" fill="#FFB905" stroke="#FFB905" stroke-width="2"/>
</g>
</svg>
