<svg width="201" height="272" viewBox="0 0 201 272" fill="none" xmlns="http://www.w3.org/2000/svg">
<g opacity="0.7">
<mask fill="white">
<path d="M173.549 141.715C173.549 185.796 137.814 221.53 93.7334 221.53C49.6526 221.53 13.9181 185.796 13.9181 141.715C13.9181 97.6341 49.6526 61.8996 93.7334 61.8996C137.814 61.8996 173.549 97.6341 173.549 141.715ZM18.9656 141.715C18.9656 183.008 52.4403 216.483 93.7334 216.483C135.026 216.483 168.501 183.008 168.501 141.715C168.501 100.422 135.026 66.9471 93.7334 66.9471C52.4403 66.9471 18.9656 100.422 18.9656 141.715Z"/>
</mask>
<path d="M173.549 141.715C173.549 185.796 137.814 221.53 93.7334 221.53C49.6526 221.53 13.9181 185.796 13.9181 141.715C13.9181 97.6341 49.6526 61.8996 93.7334 61.8996C137.814 61.8996 173.549 97.6341 173.549 141.715ZM18.9656 141.715C18.9656 183.008 52.4403 216.483 93.7334 216.483C135.026 216.483 168.501 183.008 168.501 141.715C168.501 100.422 135.026 66.9471 93.7334 66.9471C52.4403 66.9471 18.9656 100.422 18.9656 141.715Z" fill="#CBB700" stroke="#CBB700" stroke-width="2" mask="url(#path-1-inside-1)"/>
<circle cx="93.7333" cy="141.715" r="68.9919" stroke="#F60303" stroke-width="2" stroke-dasharray="500 500"/>
<path d="M200 1L51.2284 120.642H89.4976L30.6587 183.813H65.5793L1 270.434L152.642 148.399H114.851L171.776 87.1424H133.986L200 1Z" fill="#FFB905" stroke="#FFB905" stroke-width="2"/>
</g>
</svg>