<svg width="41" height="56" viewBox="0 0 41 56" fill="none" xmlns="http://www.w3.org/2000/svg">
<path d="M35.5502 28.9915C35.5502 38.0734 28.1878 45.4358 19.1059 45.4358C10.0239 45.4358 2.6615 38.0734 2.6615 28.9915C2.6615 19.9095 10.0239 12.5471 19.1059 12.5471C28.1878 12.5471 35.5502 19.9095 35.5502 28.9915ZM3.70144 28.9915C3.70144 37.4991 10.5982 44.3959 19.1059 44.3959C27.6135 44.3959 34.5103 37.4991 34.5103 28.9915C34.5103 20.4839 27.6135 13.5871 19.1059 13.5871C10.5982 13.5871 3.70144 20.4839 3.70144 28.9915Z" fill="#CBB700"/>
<circle cx="19.1059" cy="28.9915" r="14.4204" fill="#F60303"/>
<path d="M41 0L10.3486 24.6499H18.2332L6.11058 37.6651H13.3053L0 55.5116L31.2428 30.3687H23.4567L35.1851 17.7479H27.399L41 0Z" fill="#FFB905"/>
</svg>
