<svg width="24" height="20" viewBox="0 0 24 20" fill="none" xmlns="http://www.w3.org/2000/svg">
<path
  d="M23.4167 0.510475C22.4191 1.2141 21.3147 1.75226 20.1458 2.10422C19.5185 1.38288 18.6847 0.871612 17.7573 0.639564C16.8299 0.407517 15.8536 0.465887 14.9605 0.80678C14.0674 1.14767 13.3005 1.75464 12.7635 2.5456C12.2266 3.33655 11.9455 4.27333 11.9583 5.22923V6.27089C10.1277 6.31836 8.31383 5.91236 6.67813 5.08906C5.04244 4.26577 3.63575 3.05072 2.58333 1.55214C2.58333 1.55214 -1.58333 10.9271 7.79167 15.0938C5.64638 16.55 3.09079 17.2802 0.5 17.1771C9.875 22.3855 21.3333 17.1771 21.3333 5.19797C21.3324 4.90782 21.3045 4.61839 21.25 4.33339C22.3131 3.28495 23.0634 1.96122 23.4167 0.510475V0.510475Z"
  stroke="black" stroke-linecap="round" stroke-linejoin="round" />
</svg>