<svg width="25" height="18" viewBox="0 0 25 18" fill="none" xmlns="http://www.w3.org/2000/svg">
<path
  d="M23.4598 3.52083C23.3361 3.02647 23.0841 2.57351 22.7293 2.20771C22.3744 1.84192 21.9294 1.57623 21.439 1.4375C19.6473 1 12.4807 1 12.4807 1C12.4807 1 5.31399 1 3.52232 1.47917C3.03196 1.6179 2.58688 1.88358 2.23206 2.24938C1.87724 2.61518 1.62523 3.06813 1.50149 3.5625C1.17359 5.38079 1.01319 7.22532 1.02232 9.07291C1.01064 10.9344 1.17104 12.793 1.50149 14.625C1.63791 15.104 1.89556 15.5397 2.24956 15.8901C2.60355 16.2404 3.04193 16.4936 3.52232 16.625C5.31399 17.1042 12.4807 17.1042 12.4807 17.1042C12.4807 17.1042 19.6473 17.1042 21.439 16.625C21.9294 16.4863 22.3744 16.2206 22.7293 15.8548C23.0841 15.489 23.3361 15.036 23.4598 14.5417C23.7852 12.7371 23.9456 10.9066 23.939 9.07291C23.9507 7.21141 23.7903 5.35281 23.4598 3.52083V3.52083Z"
  stroke="#0E0E0E" stroke-linecap="round" stroke-linejoin="round" />
<path d="M10.137 12.4792L16.1265 9.073L10.137 5.66675V12.4792Z" stroke="black" stroke-linecap="round"
  stroke-linejoin="round" />
</svg>